<?xml version="1.0" encoding="iso-8859-1"?>
<!-- Uploaded to: SVG Repo, www.svgrepo.com, Generator: SVG Repo Mixer Tools -->
<svg fill="#000000" height="800px" width="800px" version="1.1" id="Layer_1" xmlns="http://www.w3.org/2000/svg" xmlns:xlink="http://www.w3.org/1999/xlink" 
	 viewBox="0 0 512 512" xml:space="preserve">
<g>
	<g>
		<path d="M500.817,232.394H278.702l-4.435-17.597c-1.237-4.909-5.62-8.376-10.682-8.449c-14.906-0.216-3.677-0.053-36.676-0.531
			c-3.556-2.771-7.635-4.097-11.796-4.147l-67.812-0.797l-40.535-62.582l37.251,34.073l2.546-29.622
			c1.382-16.085-10.536-30.245-26.62-31.628l-51.937-4.465c-16.085-1.382-30.245,10.536-31.628,26.62
			c-0.469,5.457-12.317,143.27-12.846,149.426c0,0,7.086,38.097,15.48,90.49L1.52,472.591c-4.585,12.157,1.553,25.729,13.711,30.314
			c12.159,4.585,25.73-1.556,30.314-13.711l39.685-105.218c1.437-3.81,1.861-7.928,1.229-11.952l-13.356-85.069l12.409,1.067
			l37.537,83.063L149.2,486.108c2.88,12.667,15.484,20.605,28.157,17.725c12.669-2.881,20.605-15.486,17.725-28.157l-26.676-117.334
			c-0.35-1.538-0.853-3.036-1.503-4.473l-32.337-71.556l2.023-23.532c-18.467-0.216-31.057-12.65-34.2-21.421l-27.044-75.457
			l44.762,69.108c3.564,5.5,9.648,8.868,16.225,8.945l78.323,0.92c8.155,0.096,15.574-4.875,18.532-12.601
			c25.239,0.365,19.268,0.279,21.493,0.311c1.578,6.261,38.289,151.928,40.114,159.174l-0.029,0.004l-21.2,3.283
			c-19.28,2.985-33.273,19.313-33.273,38.824c0,20.394,15.951,39.285,40.408,39.285c-0.472,2.063-0.729,4.206-0.729,6.41
			c0,15.868,12.909,28.777,28.777,28.777c15.868,0,28.777-12.909,28.777-28.777c0-2.203-0.257-4.347-0.729-6.41h46.789
			c-0.472,2.063-0.729,4.206-0.729,6.41c0,15.868,12.909,28.777,28.777,28.777s28.777-12.909,28.777-28.777
			c0-2.203-0.257-4.347-0.729-6.41h16.073c6.176,0,11.183-5.007,11.183-11.183c0-6.177-5.007-11.183-11.183-11.183
			c-18.712,0-157.315,0-176.177,0c-9.329,0-16.919-7.59-16.919-16.919c0-8.403,6.027-15.435,14.33-16.72
			c10.564-1.636,214.883-33.28,225.544-34.931c5.409-0.836,9.472-5.536,9.472-11.051V243.577H512
			C512,237.401,506.993,232.394,500.817,232.394z M411.63,469.158c3.535,0,6.41,2.875,6.41,6.41c0,3.535-2.876,6.41-6.41,6.41
			s-6.41-2.876-6.41-6.41C405.22,472.034,408.095,469.158,411.63,469.158z M308.744,469.158c3.535,0,6.41,2.875,6.41,6.41
			c0,3.535-2.876,6.41-6.41,6.41c-3.534,0-6.41-2.876-6.41-6.41C302.334,472.034,305.21,469.158,308.744,469.158z M489.634,357.584
			l-91.426,14.159v-20.284h-42.722v26.9l-15.726,2.436v-29.336h-31.052l-3.963-15.726h35.016V302.38h-29.941
			c-5.152,0-9.581,3.055-11.604,7.447l-13.878-55.068c7.414,0,188.134,0,205.295,0v21.675h-9.481l-30.087,14.427l17.435,36.359
			l22.135-10.614V357.584z"/>
	</g>
</g>
<g>
	<g>
		<path d="M395.223,159.873l-5.944-17.102c-0.792-2.278-3.28-3.482-5.558-2.691l-23.576,8.194c0.804-1.232,1.468-2.388,1.967-3.415
			c5.481-11.322,0.73-25.208-10.591-30.69c-11.444-5.541-25.066-0.489-30.472,10.677c-1.251,2.586-2.458,6.462-3.286,10.859
			c-3.405-2.974-6.797-5.296-9.412-6.561c-11.59-5.614-25.136-0.433-30.472,10.589c-5.495,11.349-0.759,24.978,10.59,30.474
			c1.182,0.573,2.543,1.1,4.019,1.58l-24.111,8.38c-2.278,0.792-3.482,3.28-2.691,5.558l5.944,17.101
			c0.792,2.278,3.28,3.484,5.558,2.691c2.513-0.873,9.607-3.339,9.607-3.339l3.075,8.85h37.885l-7.158-20.598
			c0,0,26.588-9.241,28.522-9.912L356.935,203l33.803-11.748l-7.814-22.482l9.607-3.339
			C394.81,164.64,396.015,162.151,395.223,159.873z M294.609,157.525c-4.339-2.102-6.152-7.314-4.049-11.655
			c2.133-4.405,7.356-6.131,11.654-4.051c6.65,3.22,15.578,13.571,16.039,17.431C313.601,161.715,299.899,160.086,294.609,157.525z
			 M349.432,138.472c-2.959,6.113-13.248,15.472-17.47,16.027c-2.04-3.295-1.457-16.975,1.766-23.631
			c2.13-4.398,7.35-6.135,11.655-4.051C349.713,128.914,351.529,134.142,349.432,138.472z"/>
	</g>
</g>
<g>
	<g>
		<circle cx="106.486" cy="50.847" r="43.272"/>
	</g>
</g>
<g>
	<g>
		<path d="M432.922,299.082l-46.432,22.265l-8.221-17.143l46.433-22.265l-2.639-5.504h-56.832
			c0.445,2.202-0.065,0.799,11.994,25.947h-21.738v33.354h37.731c2.674,5.576,5.891,12.051,8.451,17.153
			c1.341,2.672,4.573,3.773,7.267,2.477l41.42-19.924L432.922,299.082z"/>
	</g>
</g>
</svg>