<?xml version="1.0" encoding="iso-8859-1"?>
<!-- Uploaded to: SVG Repo, www.svgrepo.com, Generator: SVG Repo Mixer Tools -->
<svg height="800px" width="800px" version="1.1" id="Layer_1" xmlns="http://www.w3.org/2000/svg" xmlns:xlink="http://www.w3.org/1999/xlink" 
	 viewBox="0 0 512 512" xml:space="preserve">
<path style="fill:#7BFFCD;" d="M449.167,198.809l-57.562,169.94h32.681c17.974,0,34.816-14.554,37.42-32.332l20.142-137.608H449.167
	z"/>
<path style="fill:#CAFFEB;" d="M449.167,198.809l-20.142,137.608c-2.604,17.778-19.445,32.332-37.42,32.332H124.984l-1.59,0.229
	l-24.87-169.919l1.743-0.251h49.511c50.884,83.107,228.396,83.107,279.312,0H449.167z"/>
<path style="fill:#3E8067;" d="M380.932,449.362l-5.447,27.234l5.447,27.234c15.044,0,27.234-12.19,27.234-27.234
	C408.166,461.552,395.976,449.362,380.932,449.362z"/>
<path style="fill:#4DA081;" d="M353.698,476.596c0,15.044,12.19,27.234,27.234,27.234v-54.468
	C365.888,449.362,353.698,461.552,353.698,476.596z"/>
<path style="fill:#3E8067;" d="M163.059,449.362l-5.447,27.234l5.447,27.234c15.044,0,27.234-12.19,27.234-27.234
	C190.294,461.552,178.104,449.362,163.059,449.362z"/>
<path style="fill:#4DA081;" d="M135.825,476.596c0,15.044,12.19,27.234,27.234,27.234v-54.468
	C148.015,449.362,135.825,461.552,135.825,476.596z"/>
<path style="fill:#E44670;" d="M384.143,8.192c52.965,0,95.897,42.932,95.897,95.896c0,34.304-11.722,66.211-29.184,94.72H331.919
	L375.712,8.562C378.489,8.312,381.3,8.192,384.143,8.192z"/>
<path style="fill:#FF849B;" d="M331.919,198.809h118.936c-50.372,82.247-148.48,136.148-150.539,137.26L331.919,198.809z"/>
<path style="fill:#FFA4A9;" d="M149.724,198.809H423.48c-41.156,82.138-121.279,135.996-123.163,137.26
	C300.284,336.09,200.618,281.927,149.724,198.809z"/>
<path style="fill:#FF6288;" d="M375.712,8.562c40.143,4.216,71.647,45.372,71.647,95.526c0,34.304-9.586,66.222-23.879,94.72
	H149.723c-17.462-28.509-29.184-60.416-29.184-94.72c0-52.965,42.932-95.897,95.897-95.897c36.101,0,67.497,19.99,83.848,49.479
	C315.35,30.502,343.183,11.395,375.712,8.562z"/>
<path d="M296.416,343.247c1.216,0.66,2.559,0.991,3.901,0.991c1.342,0,2.685-0.331,3.901-0.991
	c3.08-1.673,76.053-41.739,129.49-106.554c2.87-3.482,2.375-8.632-1.108-11.503c-3.479-2.868-8.63-2.374-11.501,1.107
	c-44.517,53.996-104.988,91.167-120.785,100.371c-15.798-9.196-76.206-46.304-120.782-100.373c-2.872-3.482-8.02-3.975-11.503-1.107
	c-3.481,2.87-3.976,8.02-1.107,11.503C220.362,301.505,293.334,341.573,296.416,343.247z"/>
<path d="M380.93,441.191c-19.522,0-35.404,15.882-35.404,35.404S361.407,512,380.93,512s35.404-15.882,35.404-35.404
	S400.452,441.191,380.93,441.191z M380.93,495.66c-10.511,0-19.064-8.553-19.064-19.064s8.553-19.064,19.064-19.064
	s19.064,8.553,19.064,19.064S391.441,495.66,380.93,495.66z"/>
<path d="M163.057,441.191c-19.522,0-35.404,15.882-35.404,35.404S143.535,512,163.057,512s35.404-15.882,35.404-35.404
	S182.58,441.191,163.057,441.191z M163.057,495.66c-10.511,0-19.064-8.553-19.064-19.064s8.553-19.064,19.064-19.064
	c10.511,0,19.064,8.553,19.064,19.064S173.569,495.66,163.057,495.66z"/>
<path d="M492.737,190.638h-27.761c15.443-28.859,23.261-57.922,23.261-86.572C488.237,46.684,441.554,0,384.172,0
	c-33.327,0-64.393,16.016-83.856,42.534C280.854,16.016,249.788,0,216.462,0c-57.383,0-104.067,46.684-104.067,104.067
	c0,28.647,7.84,57.718,23.282,86.572h-30.126l-8.11-55.418c-3.174-21.683-23.585-39.324-45.498-39.324H19.262
	c-4.513,0-8.17,3.657-8.17,8.17s3.657,8.17,8.17,8.17h32.681c13.887,0,27.318,11.608,29.33,25.349l36.288,247.942
	c3.172,21.683,23.583,39.323,45.497,39.323H380.93c4.513,0,8.17-3.657,8.17-8.17c0-4.513-3.657-8.17-8.17-8.17H163.057
	c-13.887,0-27.318-11.608-29.33-25.349l-25.785-176.182h364.449l-18.771,128.251c-2.012,13.74-15.443,25.349-29.33,25.349H157.669
	c-4.513,0-8.17,3.657-8.17,8.17c0,4.513,3.657,8.17,8.17,8.17h266.621c21.914,0,42.325-17.64,45.498-39.324l19.117-130.617h3.832
	c4.513,0,8.17-3.657,8.17-8.17S497.251,190.638,492.737,190.638z M128.736,104.067c0-48.372,39.354-87.726,87.726-87.726
	c31.834,0,61.226,17.348,76.709,45.275c1.44,2.597,4.176,4.208,7.146,4.208s5.705-1.611,7.146-4.208
	c15.481-27.927,44.874-45.275,76.708-45.275c48.372,0,87.725,39.354,87.725,87.726c0,28.439-8.65,57.543-25.673,86.572H154.411
	C137.389,161.619,128.736,132.505,128.736,104.067z"/>
</svg>